<svg width="186" height="180" viewBox="0 0 186 180" fill="none" xmlns="http://www.w3.org/2000/svg">
<path d="M37.9996 52.7881V126.462L37.985 126.635C37.6964 129.954 38.0491 135.456 40.0817 140.723C42.0885 145.923 45.6108 150.626 51.5387 153.096C65.2322 158.801 86.441 166.801 96.569 170.548L156.77 150.481L156.806 150.47C163.963 148.233 178 139.305 178 121.788C178 113.185 174.032 106.786 168.836 102.146C163.562 97.4377 157.174 94.705 153.03 93.6689L139.882 90.3818L152.707 86.0029C158.397 84.0599 170.5 75.7229 170.5 58.2881C170.5 49.8586 166.674 43.5766 161.678 39.0176C156.606 34.3887 150.466 31.6896 146.496 30.6602L146.453 30.6494L146.411 30.6367L75.4996 10.5762V18.2881H67.4996V0L148.542 22.9258C153.57 24.2362 160.909 27.4849 167.071 33.1084C173.325 38.816 178.5 47.1176 178.5 58.2881C178.5 73.7389 170.823 83.6611 163.516 89.0928C167.046 90.8166 170.776 93.1553 174.164 96.1797C180.634 101.956 186 110.391 186 121.788C186 144.247 168.076 155.318 159.222 158.097L96.4332 179.026L95.1168 178.541C85.6101 175.039 62.9438 166.515 48.4615 160.48C39.9895 156.95 35.1776 150.237 32.6178 143.604C30.125 137.144 29.6544 130.508 29.9996 126.155V52.7881H37.9996Z" fill="#00B9C3"/>
<path d="M149 61.2881C149 57.5712 147.115 54.3916 144.278 51.7568C141.451 49.1307 138.004 47.3764 135.771 46.5967L86.4111 32.6367L88.5889 24.9395L138.089 38.9395L138.195 38.9697L138.301 39.0049C141.403 40.0713 145.913 42.3574 149.722 45.8945C153.551 49.4513 157 54.6052 157 61.2881C157 69.6901 151.377 76.0288 145.79 80.0928C140.172 84.1791 133.547 86.7505 129.496 87.2568C126.046 87.6881 112.307 88.1239 106.105 88.2871L105.895 80.2891C112.36 80.1189 125.554 79.688 128.504 79.3193C130.953 79.0132 136.328 77.0845 141.085 73.624C145.873 70.1412 149 65.886 149 61.2881Z" fill="#00B9C3"/>
<path d="M89 63.7881C89 50.7429 78.8748 42.374 73.752 39.8857L73.6113 39.8174L73.4756 39.7373L56.5 29.7725V42.8477C72.2396 48.457 77.1156 62.2004 77.4941 69.0684L77.5 69.1777V120.288C77.5 121.36 77.9232 122.731 78.998 124.404C80.0628 126.062 81.6189 127.782 83.4893 129.466C85.2278 131.031 87.1444 132.48 89 133.74V63.7881ZM97 147.335L91.1748 144.348C87.6952 142.563 82.5136 139.353 78.1357 135.41C75.9437 133.436 73.8434 131.181 72.2676 128.729C70.7018 126.291 69.5 123.417 69.5 120.288V69.4287C69.2373 65.2229 66.2698 56.2479 56.5 51.5127V122.288C56.5 128.524 58.0225 132.67 60.9775 136.126C64.0977 139.775 69.0828 142.981 76.7422 146.688C86.8711 151.589 93.1787 159.592 96.4658 165.689C100.116 157.771 106.072 152.031 112.282 148.026C120.057 143.014 128.455 140.559 133.972 139.823L134.007 139.818L134.041 139.814C137.95 139.363 143.838 137.828 148.623 134.825C153.343 131.863 156.5 127.837 156.5 122.288C156.5 117.174 152.967 113.267 146.938 110.335C141.025 107.459 133.761 106.112 128.852 105.788H105.5V97.7881H129.127L129.254 97.7959C134.844 98.1509 143.268 99.6541 150.437 103.141C157.533 106.592 164.5 112.603 164.5 122.288C164.5 131.539 158.99 137.763 152.877 141.601C146.858 145.379 139.784 147.194 135.027 147.752L135.028 147.753C130.545 148.351 123.293 150.446 116.617 154.75C109.989 159.023 104.161 165.311 101.876 174.276L94.584 172.417L91.1797 173.474C89.9287 169.443 84.4429 159.301 73.2578 153.889C65.4172 150.095 59.1523 146.301 54.8975 141.325C50.4775 136.156 48.5 130.052 48.5 122.288V15.8018L77.417 32.7754C84.0167 36.0524 97 46.5825 97 63.7881V147.335Z" fill="#00B9C3"/>
<path d="M0.530423 25.5852C5.28202 18.6976 19.6471 6.13122 39.2765 11.3909C40.8769 11.8197 41.8264 13.4643 41.3976 15.0647C40.9688 16.6651 39.3242 17.6146 37.7238 17.1858C21.5259 12.8456 9.45708 23.2123 5.46988 28.9915C4.52913 30.3551 2.66079 30.6985 1.29703 29.7581C-0.0666231 28.8173 -0.41004 26.949 0.530423 25.5852Z" fill="#00B9C3"/>
<path d="M11.9883 32.1487C14.6623 28.0524 22.9033 20.3169 34.3174 23.5491C35.9113 24.0005 36.8379 25.6582 36.3867 27.2522C35.9353 28.8464 34.2768 29.773 32.6826 29.3215C24.9213 27.1237 19.0146 32.3597 17.0117 35.428C16.106 36.8154 14.2477 37.2057 12.8603 36.3001C11.4729 35.3944 11.0826 33.5361 11.9883 32.1487Z" fill="#00B9C3"/>
<path d="M23.0277 38.0887C24.0223 36.6413 27.0334 33.9102 31.2797 35.0525C32.8797 35.4829 33.8283 37.1293 33.3979 38.7293C32.9674 40.3291 31.321 41.2769 29.7211 40.8465C29.2842 40.7289 28.9459 40.8007 28.6361 40.9568C28.4669 41.0421 28.3107 41.153 28.1811 41.2683C28.1175 41.3249 28.0657 41.3772 28.0277 41.4197C27.9898 41.4622 27.9731 41.487 27.9731 41.4871C27.0347 42.8525 25.1667 43.1988 23.8012 42.2605C22.4357 41.3222 22.0894 39.4542 23.0277 38.0887Z" fill="#00B9C3"/>
</svg>
