<svg width="611" height="180" viewBox="0 0 611 180" fill="none" xmlns="http://www.w3.org/2000/svg">
<path d="M37.9996 52.7881V126.462L37.985 126.635C37.6964 129.954 38.0491 135.456 40.0817 140.723C42.0885 145.923 45.6108 150.626 51.5387 153.096C65.2322 158.801 86.441 166.801 96.569 170.548L156.77 150.481L156.806 150.47C163.963 148.233 178 139.305 178 121.788C178 113.185 174.032 106.786 168.836 102.146C163.562 97.4377 157.174 94.705 153.03 93.6689L139.882 90.3818L152.707 86.0029C158.397 84.0599 170.5 75.7229 170.5 58.2881C170.5 49.8586 166.674 43.5766 161.678 39.0176C156.606 34.3887 150.466 31.6896 146.496 30.6602L146.453 30.6494L146.411 30.6367L75.4996 10.5762V18.2881H67.4996V0L148.542 22.9258C153.57 24.2362 160.909 27.4849 167.071 33.1084C173.325 38.816 178.5 47.1176 178.5 58.2881C178.5 73.7389 170.823 83.6611 163.516 89.0928C167.046 90.8166 170.776 93.1553 174.164 96.1797C180.634 101.956 186 110.391 186 121.788C186 144.247 168.076 155.318 159.222 158.097L96.4332 179.026L95.1168 178.541C85.6101 175.039 62.9438 166.515 48.4615 160.48C39.9895 156.95 35.1776 150.237 32.6178 143.604C30.125 137.144 29.6544 130.508 29.9996 126.155V52.7881H37.9996Z" fill="#00B9C3"/>
<path d="M566.424 128.266C564.41 128.266 562.521 128.104 560.756 127.781C559.016 127.483 557.574 127.097 556.431 126.625L560.01 114.768C561.875 115.339 563.553 115.65 565.044 115.7C566.561 115.75 567.866 115.402 568.959 114.656C570.078 113.91 570.985 112.642 571.681 110.853L572.613 108.429L552.068 49.5156H568.773L580.63 91.5753H581.227L593.196 49.5156H610.012L587.752 112.978C586.683 116.06 585.229 118.745 583.389 121.032C581.575 123.344 579.275 125.121 576.491 126.364C573.707 127.632 570.351 128.266 566.424 128.266Z" fill="#00B9C3"/>
<path d="M540.614 49.5152V61.447H505.266V49.5152H540.614ZM513.357 106.788V45.3763C513.357 41.2251 514.165 37.7822 515.781 35.0479C517.421 32.3135 519.658 30.2627 522.492 28.8955C525.326 27.5283 528.545 26.8447 532.15 26.8447C534.586 26.8447 536.81 27.0312 538.824 27.404C540.862 27.7769 542.379 28.1125 543.373 28.4108L540.539 40.3426C539.918 40.1437 539.147 39.9573 538.227 39.7833C537.332 39.6093 536.413 39.5223 535.468 39.5223C533.131 39.5223 531.503 40.0692 530.583 41.1629C529.664 42.2318 529.204 43.7357 529.204 45.6746V106.788H513.357Z" fill="#00B9C3"/>
<path d="M474.906 106.788V49.515H490.79V106.788H474.906ZM482.886 42.1322C480.524 42.1322 478.498 41.3492 476.808 39.7831C475.142 38.1922 474.31 36.2906 474.31 34.0782C474.31 31.8907 475.142 30.0139 476.808 28.4479C478.498 26.857 480.524 26.0615 482.886 26.0615C485.247 26.0615 487.261 26.857 488.926 28.4479C490.616 30.0139 491.462 31.8907 491.462 34.0782C491.462 36.2906 490.616 38.1922 488.926 39.7831C487.261 41.3492 485.247 42.1322 482.886 42.1322Z" fill="#00B9C3"/>
<path d="M427.963 129.458C422.817 129.458 418.405 128.75 414.726 127.333C411.072 125.941 408.164 124.039 406.001 121.628C403.838 119.217 402.434 116.507 401.788 113.5L416.479 111.523C416.926 112.667 417.635 113.736 418.604 114.73C419.574 115.724 420.854 116.52 422.445 117.116C424.06 117.738 426.024 118.049 428.336 118.049C431.791 118.049 434.637 117.203 436.875 115.513C439.137 113.848 440.268 111.051 440.268 107.124V96.646H439.597C438.901 98.2369 437.857 99.7408 436.464 101.158C435.072 102.575 433.283 103.73 431.095 104.625C428.908 105.52 426.298 105.968 423.265 105.968C418.964 105.968 415.049 104.973 411.52 102.985C408.015 100.971 405.218 97.9013 403.13 93.7749C401.067 89.6236 400.035 84.3786 400.035 78.0398C400.035 71.5518 401.092 66.1328 403.205 61.7827C405.317 57.4325 408.126 54.1761 411.631 52.0135C415.161 49.8509 419.027 48.7695 423.228 48.7695C426.434 48.7695 429.119 49.3164 431.282 50.4102C433.444 51.479 435.184 52.8214 436.502 54.4371C437.844 56.0281 438.876 57.5941 439.597 59.1353H440.193V49.5153H455.966V107.347C455.966 112.219 454.772 116.296 452.386 119.577C450 122.859 446.694 125.32 442.468 126.96C438.267 128.626 433.432 129.458 427.963 129.458ZM428.299 94.0359C430.859 94.0359 433.022 93.402 434.787 92.1342C436.576 90.8416 437.944 89.0021 438.888 86.6158C439.858 84.2045 440.342 81.321 440.342 77.9652C440.342 74.6094 439.87 71.701 438.925 69.2401C437.981 66.7543 436.614 64.8278 434.824 63.4606C433.034 62.0934 430.859 61.4098 428.299 61.4098C425.689 61.4098 423.489 62.1183 421.699 63.5352C419.909 64.9272 418.554 66.8661 417.635 69.3519C416.715 71.8377 416.255 74.7088 416.255 77.9652C416.255 81.2713 416.715 84.13 417.635 86.5412C418.579 88.9276 419.934 90.7795 421.699 92.0969C423.489 93.3896 425.689 94.0359 428.299 94.0359Z" fill="white"/>
<path d="M357.343 107.907C351.551 107.907 346.542 106.676 342.317 104.215C338.116 101.729 334.872 98.2741 332.585 93.8494C330.298 89.3999 329.154 84.2418 329.154 78.3754C329.154 72.4592 330.298 67.2887 332.585 62.864C334.872 58.4144 338.116 54.9592 342.317 52.4982C346.542 50.0124 351.551 48.7695 357.343 48.7695C363.135 48.7695 368.132 50.0124 372.333 52.4982C376.558 54.9592 379.815 58.4144 382.102 62.864C384.389 67.2887 385.532 72.4592 385.532 78.3754C385.532 84.2418 384.389 89.3999 382.102 93.8494C379.815 98.2741 376.558 101.729 372.333 104.215C368.132 106.676 363.135 107.907 357.343 107.907ZM357.418 95.6019C360.053 95.6019 362.253 94.8562 364.018 93.3647C365.782 91.8484 367.112 89.7852 368.007 87.1751C368.927 84.565 369.387 81.5945 369.387 78.2635C369.387 74.9325 368.927 71.962 368.007 69.3519C367.112 66.7418 365.782 64.6786 364.018 63.1623C362.253 61.6459 360.053 60.8878 357.418 60.8878C354.758 60.8878 352.521 61.6459 350.706 63.1623C348.916 64.6786 347.562 66.7418 346.642 69.3519C345.747 71.962 345.3 74.9325 345.3 78.2635C345.3 81.5945 345.747 84.565 346.642 87.1751C347.562 89.7852 348.916 91.8484 350.706 93.3647C352.521 94.8562 354.758 95.6019 357.418 95.6019Z" fill="white"/>
<path d="M312.442 30.4248V106.788H296.558V30.4248H312.442Z" fill="white"/>
<path d="M221.137 106.788V30.4248H251.712C257.33 30.4248 262.016 31.2575 265.769 32.923C269.523 34.5885 272.344 36.9003 274.233 39.8584C276.123 42.7916 277.067 46.1723 277.067 50.0004C277.067 52.9834 276.471 55.6059 275.277 57.868C274.084 60.1052 272.444 61.9447 270.355 63.3865C268.292 64.8034 265.931 65.8101 263.271 66.4067V67.1524C266.179 67.2767 268.901 68.097 271.437 69.6134C273.997 71.1297 276.073 73.2551 277.664 75.9894C279.255 78.699 280.05 81.9305 280.05 85.684C280.05 89.7359 279.043 93.3527 277.03 96.5345C275.041 99.6915 272.096 102.19 268.193 104.029C264.29 105.869 259.48 106.788 253.763 106.788H221.137ZM237.282 93.5889H250.444C254.944 93.5889 258.225 92.7313 260.288 91.0161C262.351 89.276 263.383 86.9642 263.383 84.0807C263.383 81.9678 262.873 80.1034 261.854 78.4877C260.835 76.8719 259.381 75.6041 257.491 74.6844C255.627 73.7646 253.402 73.3048 250.817 73.3048H237.282V93.5889ZM237.282 62.3797H249.251C251.463 62.3797 253.427 61.9944 255.142 61.2238C256.882 60.4284 258.25 59.3097 259.244 57.868C260.263 56.4262 260.773 54.6986 260.773 52.6851C260.773 49.9259 259.791 47.7011 257.827 46.0107C255.888 44.3204 253.129 43.4752 249.549 43.4752H237.282V62.3797Z" fill="white"/>
<path d="M542.119 165.244C540.371 165.244 538.851 164.813 537.559 163.952C536.293 163.09 535.317 161.874 534.633 160.304C533.949 158.733 533.607 156.871 533.607 154.718C533.607 152.564 533.949 150.702 534.633 149.132C535.317 147.561 536.293 146.345 537.559 145.484C538.851 144.622 540.371 144.192 542.119 144.192C543.462 144.192 544.691 144.483 545.805 145.066C546.92 145.623 547.756 146.421 548.313 147.46V137.808H551.505V164.788H548.617L548.503 161.748C547.946 162.837 547.097 163.698 545.957 164.332C544.817 164.94 543.538 165.244 542.119 165.244ZM542.765 162.204C543.956 162.204 544.957 161.9 545.767 161.292C546.603 160.684 547.237 159.822 547.667 158.708C548.098 157.568 548.313 156.238 548.313 154.718C548.313 153.147 548.098 151.804 547.667 150.69C547.237 149.575 546.603 148.726 545.767 148.144C544.957 147.536 543.956 147.232 542.765 147.232C540.992 147.232 539.573 147.903 538.509 149.246C537.471 150.563 536.951 152.387 536.951 154.718C536.951 157.023 537.471 158.847 538.509 160.19C539.573 161.532 540.992 162.204 542.765 162.204Z" fill="white"/>
<path d="M528.26 164.788C527.094 164.788 526.144 164.484 525.41 163.876C524.675 163.268 524.308 162.305 524.308 160.988V137.808H527.5V160.722C527.5 161.127 527.601 161.444 527.804 161.672C528.032 161.874 528.348 161.976 528.754 161.976H530.502V164.788H528.26Z" fill="white"/>
<path d="M510.299 164.788V144.648H513.111L513.263 149.74L512.959 149.626C513.212 147.904 513.757 146.65 514.593 145.864C515.454 145.054 516.594 144.648 518.013 144.648H519.989V147.688H518.051C517.037 147.688 516.189 147.878 515.505 148.258C514.846 148.613 514.339 149.158 513.985 149.892C513.655 150.602 513.491 151.514 513.491 152.628V164.788H510.299Z" fill="white"/>
<path d="M495.994 165.244C494.144 165.244 492.523 164.814 491.13 163.952C489.736 163.091 488.66 161.875 487.9 160.304C487.14 158.708 486.76 156.846 486.76 154.718C486.76 152.565 487.14 150.703 487.9 149.132C488.66 147.562 489.736 146.346 491.13 145.484C492.523 144.623 494.144 144.192 495.994 144.192C497.843 144.192 499.452 144.623 500.82 145.484C502.213 146.346 503.29 147.562 504.05 149.132C504.81 150.703 505.19 152.565 505.19 154.718C505.19 156.846 504.81 158.708 504.05 160.304C503.29 161.875 502.213 163.091 500.82 163.952C499.452 164.814 497.843 165.244 495.994 165.244ZM495.994 162.204C497.843 162.204 499.274 161.546 500.288 160.228C501.326 158.886 501.846 157.049 501.846 154.718C501.846 152.388 501.326 150.564 500.288 149.246C499.274 147.904 497.843 147.232 495.994 147.232C494.144 147.232 492.7 147.904 491.662 149.246C490.623 150.564 490.104 152.388 490.104 154.718C490.104 157.049 490.623 158.886 491.662 160.228C492.7 161.546 494.144 162.204 495.994 162.204Z" fill="white"/>
<path d="M458.477 164.788L451.371 137.808H454.943L460.491 160.304L466.001 137.808H469.725L475.273 160.304L480.783 137.808H484.393L477.287 164.788H473.183L467.863 143.888L462.543 164.788H458.477Z" fill="white"/>
<path d="M427.549 164.788V144.648H430.361L430.513 149.74L430.209 149.626C430.462 147.904 431.007 146.65 431.843 145.864C432.704 145.054 433.844 144.648 435.263 144.648H437.239V147.688H435.301C434.288 147.688 433.439 147.878 432.755 148.258C432.096 148.613 431.589 149.158 431.235 149.892C430.905 150.602 430.741 151.514 430.741 152.628V164.788H427.549Z" fill="white"/>
<path d="M411.543 165.244C409.541 165.244 407.933 164.573 406.717 163.23C405.526 161.862 404.931 159.988 404.931 157.606V144.648H408.123V156.732C408.123 158.683 408.465 160.127 409.149 161.064C409.858 161.976 410.935 162.432 412.379 162.432C413.975 162.432 415.229 161.926 416.141 160.912C417.053 159.874 417.509 158.455 417.509 156.656V144.648H420.701V164.788H417.661V159.81L418.155 160.076C417.749 161.723 416.977 163.002 415.837 163.914C414.697 164.801 413.265 165.244 411.543 165.244Z" fill="white"/>
<path d="M390.625 165.244C388.775 165.244 387.154 164.814 385.761 163.952C384.367 163.091 383.291 161.875 382.531 160.304C381.771 158.708 381.391 156.846 381.391 154.718C381.391 152.565 381.771 150.703 382.531 149.132C383.291 147.562 384.367 146.346 385.761 145.484C387.154 144.623 388.775 144.192 390.625 144.192C392.474 144.192 394.083 144.623 395.451 145.484C396.844 146.346 397.921 147.562 398.681 149.132C399.441 150.703 399.821 152.565 399.821 154.718C399.821 156.846 399.441 158.708 398.681 160.304C397.921 161.875 396.844 163.091 395.451 163.952C394.083 164.814 392.474 165.244 390.625 165.244ZM390.625 162.204C392.474 162.204 393.905 161.546 394.919 160.228C395.957 158.886 396.477 157.049 396.477 154.718C396.477 152.388 395.957 150.564 394.919 149.246C393.905 147.904 392.474 147.232 390.625 147.232C388.775 147.232 387.331 147.904 386.293 149.246C385.254 150.564 384.735 152.388 384.735 154.718C384.735 157.049 385.254 158.886 386.293 160.228C387.331 161.546 388.775 162.204 390.625 162.204Z" fill="white"/>
<path d="M369.046 164.788V153.768L359.508 137.808H363.384L370.68 150.424L377.976 137.808H381.852L372.314 153.768V164.788H369.046Z" fill="white"/>
<path d="M329.676 164.788V137.808H332.868V149.094L332.488 149.018C332.741 147.903 333.172 146.991 333.78 146.282C334.388 145.572 335.135 145.053 336.022 144.724C336.908 144.369 337.884 144.192 338.948 144.192C340.392 144.192 341.608 144.521 342.596 145.18C343.609 145.813 344.369 146.712 344.876 147.878C345.408 149.018 345.674 150.335 345.674 151.83V164.788H342.482V152.742C342.482 150.791 342.127 149.347 341.418 148.41C340.734 147.472 339.682 147.004 338.264 147.004C336.642 147.004 335.338 147.498 334.35 148.486C333.362 149.474 332.868 150.905 332.868 152.78V164.788H329.676Z" fill="white"/>
<path d="M316.693 165.244C314.895 165.244 313.362 164.953 312.095 164.37C310.854 163.788 309.879 162.99 309.169 161.976C308.485 160.938 308.093 159.76 307.991 158.442L311.335 158.214C311.538 159.43 312.057 160.406 312.893 161.14C313.729 161.85 314.996 162.204 316.693 162.204C318.061 162.204 319.151 161.989 319.961 161.558C320.797 161.102 321.215 160.38 321.215 159.392C321.215 158.86 321.089 158.417 320.835 158.062C320.582 157.708 320.088 157.404 319.353 157.15C318.619 156.872 317.529 156.606 316.085 156.352C314.16 155.998 312.64 155.567 311.525 155.06C310.436 154.528 309.651 153.882 309.169 153.122C308.713 152.337 308.485 151.412 308.485 150.348C308.485 148.55 309.144 147.08 310.461 145.94C311.779 144.775 313.653 144.192 316.085 144.192C317.732 144.192 319.113 144.496 320.227 145.104C321.367 145.687 322.254 146.472 322.887 147.46C323.546 148.423 323.977 149.487 324.179 150.652L320.835 150.88C320.683 150.171 320.405 149.55 319.999 149.018C319.594 148.461 319.062 148.03 318.403 147.726C317.745 147.397 316.959 147.232 316.047 147.232C314.603 147.232 313.539 147.511 312.855 148.068C312.171 148.626 311.829 149.335 311.829 150.196C311.829 150.855 311.981 151.4 312.285 151.83C312.615 152.236 313.134 152.578 313.843 152.856C314.553 153.11 315.503 153.338 316.693 153.54C318.745 153.895 320.341 154.326 321.481 154.832C322.621 155.339 323.419 155.96 323.875 156.694C324.331 157.429 324.559 158.328 324.559 159.392C324.559 160.634 324.205 161.698 323.495 162.584C322.811 163.446 321.874 164.104 320.683 164.56C319.518 165.016 318.188 165.244 316.693 165.244Z" fill="white"/>
<path d="M299.693 164.789V144.649H302.885V164.789H299.693ZM299.617 141.495V137.771H302.961V141.495H299.617Z" fill="white"/>
<path d="M293.052 164.788C291.886 164.788 290.936 164.484 290.202 163.876C289.467 163.268 289.1 162.305 289.1 160.988V137.808H292.292V160.722C292.292 161.127 292.393 161.444 292.596 161.672C292.824 161.874 293.14 161.976 293.546 161.976H295.294V164.788H293.052Z" fill="white"/>
<path d="M275.159 165.244C273.765 165.244 272.524 164.94 271.435 164.332C270.345 163.698 269.509 162.837 268.927 161.748L268.813 164.788H265.925V137.808H269.117V147.46C269.623 146.624 270.409 145.876 271.473 145.218C272.537 144.534 273.765 144.192 275.159 144.192C276.932 144.192 278.465 144.622 279.757 145.484C281.049 146.345 282.049 147.561 282.759 149.132C283.468 150.702 283.823 152.564 283.823 154.718C283.823 156.871 283.468 158.733 282.759 160.304C282.049 161.874 281.049 163.09 279.757 163.952C278.465 164.813 276.932 165.244 275.159 165.244ZM274.969 162.204C276.666 162.204 278.009 161.532 278.997 160.19C279.985 158.847 280.479 157.023 280.479 154.718C280.479 152.387 279.985 150.563 278.997 149.246C278.009 147.903 276.691 147.232 275.045 147.232C273.803 147.232 272.739 147.536 271.853 148.144C270.966 148.726 270.282 149.575 269.801 150.69C269.345 151.804 269.117 153.147 269.117 154.718C269.117 156.238 269.345 157.568 269.801 158.708C270.282 159.822 270.953 160.684 271.815 161.292C272.701 161.9 273.753 162.204 274.969 162.204Z" fill="white"/>
<path d="M250.476 165.244C248.475 165.244 246.866 164.573 245.65 163.23C244.46 161.862 243.864 159.988 243.864 157.606V144.648H247.056V156.732C247.056 158.683 247.398 160.127 248.082 161.064C248.792 161.976 249.868 162.432 251.312 162.432C252.908 162.432 254.162 161.926 255.074 160.912C255.986 159.874 256.442 158.455 256.442 156.656V144.648H259.634V164.788H256.594V159.81L257.088 160.076C256.683 161.723 255.91 163.002 254.77 163.914C253.63 164.801 252.199 165.244 250.476 165.244Z" fill="white"/>
<path d="M219.996 164.788V137.808H229.686C232.701 137.808 235.044 138.53 236.716 139.974C238.388 141.418 239.224 143.419 239.224 145.978C239.224 147.7 238.844 149.195 238.084 150.462C237.324 151.703 236.235 152.653 234.816 153.312C233.397 153.97 231.687 154.3 229.686 154.3H223.264V164.788H219.996ZM223.264 151.108H229.686C231.713 151.108 233.233 150.677 234.246 149.816C235.285 148.954 235.804 147.675 235.804 145.978C235.804 144.331 235.285 143.09 234.246 142.254C233.233 141.418 231.713 141 229.686 141H223.264V151.108Z" fill="white"/>
<path d="M149 61.2881C149 57.5712 147.115 54.3916 144.278 51.7568C141.451 49.1307 138.004 47.3764 135.771 46.5967L86.4111 32.6367L88.5889 24.9395L138.089 38.9395L138.195 38.9697L138.301 39.0049C141.403 40.0713 145.913 42.3574 149.722 45.8945C153.551 49.4513 157 54.6052 157 61.2881C157 69.6901 151.377 76.0288 145.79 80.0928C140.172 84.1791 133.547 86.7505 129.496 87.2568C126.046 87.6881 112.307 88.1239 106.105 88.2871L105.895 80.2891C112.36 80.1189 125.554 79.688 128.504 79.3193C130.953 79.0132 136.328 77.0845 141.085 73.624C145.873 70.1412 149 65.886 149 61.2881Z" fill="#00B9C3"/>
<path d="M89 63.7881C89 50.7429 78.8748 42.374 73.752 39.8857L73.6113 39.8174L73.4756 39.7373L56.5 29.7725V42.8477C72.2396 48.457 77.1156 62.2004 77.4941 69.0684L77.5 69.1777V120.288C77.5 121.36 77.9232 122.731 78.998 124.404C80.0628 126.062 81.6189 127.782 83.4893 129.466C85.2278 131.031 87.1444 132.48 89 133.74V63.7881ZM97 147.335L91.1748 144.348C87.6952 142.563 82.5136 139.353 78.1357 135.41C75.9437 133.436 73.8434 131.181 72.2676 128.729C70.7018 126.291 69.5 123.417 69.5 120.288V69.4287C69.2373 65.2229 66.2698 56.2479 56.5 51.5127V122.288C56.5 128.524 58.0225 132.67 60.9775 136.126C64.0977 139.775 69.0828 142.981 76.7422 146.688C86.8711 151.589 93.1787 159.592 96.4658 165.689C100.116 157.771 106.072 152.031 112.282 148.026C120.057 143.014 128.455 140.559 133.972 139.823L134.007 139.818L134.041 139.814C137.95 139.363 143.838 137.828 148.623 134.825C153.343 131.863 156.5 127.837 156.5 122.288C156.5 117.174 152.967 113.267 146.938 110.335C141.025 107.459 133.761 106.112 128.852 105.788H105.5V97.7881H129.127L129.254 97.7959C134.844 98.1509 143.268 99.6541 150.437 103.141C157.533 106.592 164.5 112.603 164.5 122.288C164.5 131.539 158.99 137.763 152.877 141.601C146.858 145.379 139.784 147.194 135.027 147.752L135.028 147.753C130.545 148.351 123.293 150.446 116.617 154.75C109.989 159.023 104.161 165.311 101.876 174.276L94.584 172.417L91.1797 173.474C89.9287 169.443 84.4429 159.301 73.2578 153.889C65.4172 150.095 59.1523 146.301 54.8975 141.325C50.4775 136.156 48.5 130.052 48.5 122.288V15.8018L77.417 32.7754C84.0167 36.0524 97 46.5825 97 63.7881V147.335Z" fill="#00B9C3"/>
<path d="M0.530423 25.5852C5.28202 18.6976 19.6471 6.13122 39.2765 11.3909C40.8769 11.8197 41.8264 13.4643 41.3976 15.0647C40.9688 16.6651 39.3242 17.6146 37.7238 17.1858C21.5259 12.8456 9.45708 23.2123 5.46988 28.9915C4.52913 30.3551 2.66079 30.6985 1.29703 29.7581C-0.0666231 28.8173 -0.41004 26.949 0.530423 25.5852Z" fill="#00B9C3"/>
<path d="M11.9883 32.1487C14.6623 28.0524 22.9033 20.3169 34.3174 23.5491C35.9113 24.0005 36.8379 25.6582 36.3867 27.2522C35.9353 28.8464 34.2768 29.773 32.6826 29.3215C24.9213 27.1237 19.0146 32.3597 17.0117 35.428C16.106 36.8154 14.2477 37.2057 12.8603 36.3001C11.4729 35.3944 11.0826 33.5361 11.9883 32.1487Z" fill="#00B9C3"/>
<path d="M23.0277 38.0887C24.0223 36.6413 27.0334 33.9102 31.2797 35.0525C32.8797 35.4829 33.8283 37.1293 33.3979 38.7293C32.9674 40.3291 31.321 41.2769 29.7211 40.8465C29.2842 40.7289 28.9459 40.8007 28.6361 40.9568C28.4669 41.0421 28.3107 41.153 28.1811 41.2683C28.1175 41.3249 28.0657 41.3772 28.0277 41.4197C27.9898 41.4622 27.9731 41.487 27.9731 41.4871C27.0347 42.8525 25.1667 43.1988 23.8012 42.2605C22.4357 41.3222 22.0894 39.4542 23.0277 38.0887Z" fill="#00B9C3"/>
</svg>
